<svg xmlns="http://www.w3.org/2000/svg" version="1.1" xmlns:xlink="http://www.w3.org/1999/xlink" xmlns:svgjs="http://svgjs.dev/svgjs" width="1000" height="1125" viewBox="0 0 1000 1125"><g transform="matrix(1,0,0,1,0.00003351562486386683,0)"><svg viewBox="0 0 320 360" data-background-color="#ffffff" preserveAspectRatio="xMidYMid meet" height="1125" width="1000" xmlns="http://www.w3.org/2000/svg" xmlns:xlink="http://www.w3.org/1999/xlink"><g id="tight-bounds" transform="matrix(1,0,0,1,0.00001072500003829191,0)"><svg viewBox="0 0 320 360" height="360" width="320"><g><svg></svg></g><g><svg viewBox="0 0 320 360" height="360" width="320"><g><path transform="translate(-21.67367,-1.67367) scale(3.63347,3.63347)" d="M87.84 28.16c-3.42-5.92-31.01-21.84-37.84-21.84-6.83 0-34.41 15.92-37.84 21.84-3.19 5.51-3.19 38.18 0 43.69 3.43 5.91 31.01 21.83 37.84 21.83 6.83 0 34.42-15.92 37.84-21.84 3.19-5.51 3.19-38.17 0-43.68zM91.14 26.25c-3.98-6.88-32.88-23.75-41.14-23.75-8.26 0-37.16 16.87-41.14 23.75-3.86 6.66-3.86 40.84 0 47.5 3.98 6.88 32.88 23.75 41.14 23.75 8.26 0 37.16-16.87 41.14-23.74 3.86-6.67 3.86-40.85 0-47.51zM88.78 72.39c-3.51 6.07-31.78 22.38-38.78 22.38-7 0-35.27-16.32-38.78-22.39-3.27-5.65-3.27-39.13 0-44.78 3.51-6.06 31.78-22.37 38.78-22.37 7 0 35.27 16.32 38.78 22.38 3.27 5.65 3.27 39.13 0 44.78z" fill="#41644a" fill-rule="nonzero" stroke="none" stroke-width="1" stroke-linecap="butt" stroke-linejoin="miter" stroke-miterlimit="10" stroke-dasharray="" stroke-dashoffset="0" font-family="none" font-weight="none" font-size="none" text-anchor="none" style="mix-blend-mode: normal" data-fill-palette-color="tertiary"></path></g><g transform="matrix(1,0,0,1,48,123.66620643518945)"><svg viewBox="0 0 224 112.6675871296211" height="112.6675871296211" width="224"><g><svg viewBox="0 0 224 112.6675871296211" height="112.6675871296211" width="224"><g><svg viewBox="0 0 343.1260328830022 172.58563484949502" height="112.6675871296211" width="224"><g><svg viewBox="0 0 224 172.58563484949502" height="172.58563484949502" width="224"><g id="textblocktransform"><svg viewBox="0 0 224 172.58563484949502" height="172.58563484949502" width="224" id="textblock"><g><svg viewBox="0 0 224 139.76347314201618" height="139.76347314201618" width="224"><g transform="matrix(1,0,0,1,0,0)"><svg width="224" viewBox="54.56999999999999 -35.059999999999995 132.71 79.63" height="139.76347314201618" data-palette-color="#f2e3db"><svg></svg><svg></svg><g class="undefined-text-0" data-fill-palette-color="quaternary" id="text-0"><path transform="translate(52.98,0)" d="M26.1-26.61v0c0 0.88-0.11 1.75-0.33 2.61-0.22 0.86-0.567 1.707-1.04 2.54v0c-0.44 0.78-0.963 1.457-1.57 2.03-0.613 0.567-1.247 1.04-1.9 1.42-0.647 0.387-1.283 0.673-1.91 0.86-0.627 0.187-1.177 0.28-1.65 0.28v0c-0.44 0-0.777-0.067-1.01-0.2-0.24-0.127-0.36-0.287-0.36-0.48v0c0-0.233 0.203-0.43 0.61-0.59v0c0.26-0.113 0.647-0.34 1.16-0.68 0.513-0.347 1.027-0.833 1.54-1.46 0.513-0.627 0.967-1.407 1.36-2.34 0.387-0.933 0.58-2.043 0.58-3.33v0c0-1.14-0.17-2.11-0.51-2.91-0.34-0.793-0.787-1.44-1.34-1.94-0.553-0.493-1.177-0.853-1.87-1.08-0.693-0.233-1.39-0.35-2.09-0.35v0c-1.493 0-2.837 0.45-4.03 1.35-1.187 0.893-2.193 2.117-3.02 3.67-0.833 1.553-1.47 3.377-1.91 5.47-0.44 2.093-0.66 4.343-0.66 6.75v0c0 1.773 0.137 3.373 0.41 4.8 0.267 1.42 0.627 2.673 1.08 3.76 0.46 1.08 0.997 2.007 1.61 2.78 0.62 0.773 1.273 1.403 1.96 1.89 0.68 0.487 1.383 0.847 2.11 1.08 0.72 0.227 1.423 0.34 2.11 0.34v0c1.24 0 2.35-0.223 3.33-0.67 0.987-0.447 1.867-1.05 2.64-1.81 0.773-0.76 1.453-1.64 2.04-2.64 0.587-1 1.1-2.06 1.54-3.18v0c0.08-0.213 0.19-0.37 0.33-0.47 0.133-0.093 0.267-0.14 0.4-0.14v0c0.227 0 0.34 0.13 0.34 0.39v0c0 0.113-0.07 0.38-0.21 0.8-0.14 0.427-0.333 0.933-0.58 1.52-0.253 0.587-0.55 1.217-0.89 1.89-0.347 0.673-0.723 1.32-1.13 1.94v0c-1.22 1.873-2.623 3.287-4.21 4.24-1.587 0.947-3.453 1.42-5.6 1.42v0c-1.94 0-3.647-0.423-5.12-1.27-1.473-0.84-2.71-1.987-3.71-3.44-1-1.447-1.753-3.13-2.26-5.05-0.5-1.92-0.75-3.947-0.75-6.08v0c0-2.553 0.26-4.873 0.78-6.96 0.52-2.08 1.173-3.92 1.96-5.52 0.793-1.593 1.65-2.947 2.57-4.06 0.92-1.113 1.787-1.99 2.6-2.63v0c0.42-0.34 0.923-0.69 1.51-1.05 0.587-0.353 1.23-0.673 1.93-0.96 0.7-0.287 1.443-0.523 2.23-0.71 0.793-0.187 1.603-0.28 2.43-0.28v0c1.307 0 2.483 0.223 3.53 0.67 1.053 0.447 1.943 1.053 2.67 1.82 0.733 0.767 1.3 1.663 1.7 2.69 0.4 1.027 0.6 2.117 0.6 3.27zM40.26-9.25v0c0.26 0 0.39 0.137 0.39 0.41v0c0 0.113-0.023 0.227-0.07 0.34v0c-0.527 1.453-1 2.727-1.42 3.82-0.42 1.1-0.833 2.02-1.24 2.76-0.413 0.74-0.843 1.3-1.29 1.68-0.447 0.373-0.947 0.56-1.5 0.56v0c-0.713 0-1.273-0.183-1.68-0.55-0.407-0.367-0.71-0.82-0.91-1.36-0.193-0.533-0.313-1.107-0.36-1.72-0.053-0.607-0.08-1.157-0.08-1.65v0c0-0.873 0.03-1.707 0.09-2.5 0.06-0.787 0.09-1.383 0.09-1.79v0c0-0.62-0.173-0.93-0.52-0.93v0c-0.26 0-0.453 0.18-0.58 0.54v0c-0.087 0.193-0.21 0.55-0.37 1.07-0.16 0.52-0.35 1.11-0.57 1.77-0.22 0.66-0.443 1.343-0.67 2.05-0.233 0.707-0.447 1.337-0.64 1.89v0c-0.26 0.72-0.5 1.303-0.72 1.75-0.22 0.447-0.427 0.793-0.62 1.04-0.2 0.24-0.397 0.403-0.59 0.49-0.193 0.08-0.397 0.12-0.61 0.12v0c-0.18 0-0.363-0.033-0.55-0.1-0.187-0.067-0.353-0.18-0.5-0.34-0.147-0.167-0.267-0.383-0.36-0.65-0.1-0.267-0.15-0.613-0.15-1.04v0c0-0.44 0.027-1.11 0.08-2.01 0.06-0.907 0.133-1.953 0.22-3.14 0.093-1.187 0.2-2.463 0.32-3.83 0.12-1.367 0.247-2.743 0.38-4.13 0.133-1.38 0.26-2.717 0.38-4.01 0.12-1.293 0.23-2.453 0.33-3.48v0c0.18-1.793 0.363-3.38 0.55-4.76 0.187-1.387 0.433-2.47 0.74-3.25v0c0.1-0.247 0.207-0.443 0.32-0.59 0.113-0.147 0.24-0.283 0.38-0.41 0.14-0.133 0.293-0.267 0.46-0.4 0.173-0.14 0.373-0.323 0.6-0.55v0c0.42-0.407 0.74-0.693 0.96-0.86 0.22-0.16 0.413-0.24 0.58-0.24v0c0.147 0 0.303 0.053 0.47 0.16 0.173 0.107 0.26 0.303 0.26 0.59v0c0 0.067-0.023 0.2-0.07 0.4v0c-0.053 0.193-0.143 0.59-0.27 1.19-0.133 0.607-0.28 1.34-0.44 2.2-0.167 0.86-0.333 1.823-0.5 2.89-0.173 1.067-0.323 2.17-0.45 3.31v0c-0.167 1.267-0.317 2.543-0.45 3.83-0.14 1.287-0.267 2.53-0.38 3.73-0.113 1.193-0.22 2.317-0.32 3.37-0.1 1.047-0.18 1.973-0.24 2.78-0.067 0.807-0.117 1.467-0.15 1.98-0.033 0.513-0.05 0.817-0.05 0.91v0c0 0.26 0.017 0.39 0.05 0.39v0c0.013 0 0.083-0.157 0.21-0.47 0.12-0.32 0.27-0.733 0.45-1.24 0.18-0.5 0.383-1.063 0.61-1.69 0.227-0.627 0.47-1.26 0.73-1.9 0.26-0.633 0.53-1.227 0.81-1.78 0.273-0.553 0.55-1.017 0.83-1.39v0c0.32-0.44 0.66-0.767 1.02-0.98 0.36-0.207 0.71-0.31 1.05-0.31v0c0.633 0 1.103 0.28 1.41 0.84 0.3 0.56 0.45 1.273 0.45 2.14v0c0 0.373-0.03 0.853-0.09 1.44-0.053 0.58-0.11 1.193-0.17 1.84-0.053 0.64-0.11 1.267-0.17 1.88-0.06 0.607-0.09 1.123-0.09 1.55v0c0 0.453 0.027 0.827 0.08 1.12 0.047 0.293 0.117 0.53 0.21 0.71 0.087 0.18 0.183 0.307 0.29 0.38 0.107 0.073 0.223 0.11 0.35 0.11v0c0.26 0 0.51-0.143 0.75-0.43 0.233-0.287 0.473-0.673 0.72-1.16 0.24-0.487 0.49-1.06 0.75-1.72 0.26-0.66 0.547-1.363 0.86-2.11v0c0.08-0.213 0.173-0.36 0.28-0.44 0.107-0.08 0.217-0.12 0.33-0.12zM44.95-1.73v0c0.387 0 0.727-0.13 1.02-0.39 0.293-0.26 0.543-0.603 0.75-1.03 0.2-0.42 0.367-0.913 0.5-1.48 0.127-0.56 0.223-1.14 0.29-1.74v0c-0.473-0.327-0.933-0.75-1.38-1.27-0.447-0.52-0.85-1.157-1.21-1.91v0c-0.213-0.44-0.367-0.89-0.46-1.35-0.1-0.467-0.15-0.91-0.15-1.33v0c0-0.54 0.073-1.047 0.22-1.52 0.147-0.467 0.363-0.873 0.65-1.22 0.287-0.34 0.64-0.61 1.06-0.81 0.427-0.207 0.917-0.31 1.47-0.31v0c0.693 0 1.267 0.167 1.72 0.5 0.447 0.333 0.8 0.757 1.06 1.27 0.26 0.513 0.443 1.07 0.55 1.67 0.107 0.607 0.16 1.17 0.16 1.69v0c0 0.68-0.047 1.38-0.14 2.1-0.087 0.713-0.23 1.437-0.43 2.17v0c0.607-0.047 1.147-0.213 1.62-0.5 0.467-0.287 0.863-0.77 1.19-1.45v0c0.2-0.407 0.403-0.61 0.61-0.61v0c0.113 0 0.217 0.03 0.31 0.09 0.087 0.067 0.13 0.173 0.13 0.32v0c0 0.113-0.023 0.227-0.07 0.34v0c-0.327 0.933-0.867 1.667-1.62 2.2-0.76 0.54-1.603 0.81-2.53 0.81v0c-0.28 0.793-0.617 1.547-1.01 2.26-0.4 0.707-0.87 1.327-1.41 1.86-0.533 0.54-1.143 0.963-1.83 1.27-0.68 0.313-1.437 0.47-2.27 0.47v0c-0.44 0-0.937-0.067-1.49-0.2-0.553-0.127-1.073-0.4-1.56-0.82-0.487-0.413-0.897-0.997-1.23-1.75-0.34-0.76-0.51-1.767-0.51-3.02v0c0-1.027 0.193-2.11 0.58-3.25 0.38-1.14 1.02-2.27 1.92-3.39v0c0.34-0.427 0.653-0.727 0.94-0.9 0.28-0.18 0.51-0.27 0.69-0.27v0c0.36 0 0.54 0.22 0.54 0.66v0c0 0.193-0.067 0.437-0.2 0.73-0.127 0.293-0.263 0.667-0.41 1.12-0.147 0.46-0.287 1.003-0.42 1.63-0.127 0.627-0.19 1.363-0.19 2.21v0c0 1.627 0.23 2.89 0.69 3.79 0.467 0.907 1.083 1.36 1.85 1.36zM47.66-8.91v0c0-1.66-0.157-2.853-0.47-3.58-0.307-0.72-0.647-1.007-1.02-0.86v0c-0.167 0.06-0.26 0.203-0.28 0.43-0.027 0.233-0.04 0.453-0.04 0.66v0c0 0.36 0.05 0.737 0.15 1.13 0.093 0.387 0.217 0.777 0.37 1.17 0.16 0.387 0.35 0.757 0.57 1.11 0.22 0.347 0.45 0.667 0.69 0.96v0c0.02-0.173 0.03-0.343 0.03-0.51 0-0.16 0-0.33 0-0.51zM62.67-9.25v0c0.1 0 0.187 0.037 0.26 0.11 0.073 0.073 0.11 0.173 0.11 0.3v0c0 0.113-0.027 0.227-0.08 0.34v0c-0.32 0.947-0.633 1.813-0.94 2.6-0.3 0.793-0.597 1.523-0.89 2.19v0c-0.273 0.633-0.537 1.177-0.79 1.63-0.253 0.46-0.497 0.843-0.73 1.15-0.24 0.313-0.477 0.563-0.71 0.75-0.24 0.187-0.48 0.32-0.72 0.4v0c-0.247 0.08-0.533 0.12-0.86 0.12v0c-0.353 0-0.743-0.077-1.17-0.23-0.42-0.153-0.813-0.45-1.18-0.89-0.367-0.44-0.673-1.053-0.92-1.84-0.24-0.793-0.36-1.823-0.36-3.09v0c0-0.347 0.02-0.927 0.06-1.74 0.04-0.813 0.097-1.793 0.17-2.94 0.073-1.147 0.163-2.443 0.27-3.89 0.107-1.453 0.223-2.983 0.35-4.59v0c0.08-0.993 0.183-2.08 0.31-3.26 0.12-1.18 0.243-2.333 0.37-3.46 0.133-1.12 0.267-2.153 0.4-3.1 0.127-0.94 0.24-1.68 0.34-2.22v0c0.113-0.567 0.333-1.013 0.66-1.34 0.32-0.327 0.683-0.677 1.09-1.05v0c0.147-0.147 0.303-0.307 0.47-0.48 0.16-0.167 0.323-0.323 0.49-0.47 0.16-0.147 0.317-0.273 0.47-0.38 0.16-0.107 0.31-0.16 0.45-0.16v0c0.233 0 0.35 0.113 0.35 0.34v0c0 0.18-0.043 0.507-0.13 0.98-0.08 0.473-0.193 1.23-0.34 2.27-0.147 1.04-0.32 2.443-0.52 4.21-0.207 1.767-0.423 4.033-0.65 6.8v0c-0.047 0.553-0.103 1.213-0.17 1.98-0.067 0.76-0.133 1.57-0.2 2.43-0.06 0.853-0.12 1.723-0.18 2.61-0.053 0.887-0.107 1.723-0.16 2.51-0.047 0.793-0.087 1.513-0.12 2.16-0.033 0.653-0.05 1.177-0.05 1.57v0c0 1.12 0.12 2.003 0.36 2.65 0.233 0.64 0.627 0.96 1.18 0.96v0c0.307 0 0.583-0.14 0.83-0.42 0.247-0.273 0.483-0.65 0.71-1.13 0.227-0.48 0.463-1.043 0.71-1.69 0.24-0.64 0.507-1.333 0.8-2.08v0c0.08-0.2 0.177-0.35 0.29-0.45 0.12-0.107 0.243-0.16 0.37-0.16zM71.22-9.25v0c0.093 0 0.177 0.037 0.25 0.11 0.073 0.073 0.11 0.173 0.11 0.3v0c0 0.113-0.023 0.227-0.07 0.34v0c-0.327 0.947-0.64 1.813-0.94 2.6-0.3 0.793-0.597 1.523-0.89 2.19v0c-0.28 0.633-0.547 1.177-0.8 1.63-0.247 0.46-0.49 0.843-0.73 1.15-0.233 0.313-0.47 0.563-0.71 0.75-0.233 0.187-0.473 0.32-0.72 0.4v0c-0.24 0.08-0.523 0.12-0.85 0.12v0c-0.36 0-0.75-0.077-1.17-0.23-0.427-0.153-0.823-0.45-1.19-0.89-0.367-0.44-0.67-1.053-0.91-1.84-0.247-0.793-0.37-1.823-0.37-3.09v0c0-0.347 0.02-0.927 0.06-1.74 0.04-0.813 0.097-1.793 0.17-2.94 0.073-1.147 0.163-2.443 0.27-3.89 0.107-1.453 0.227-2.983 0.36-4.59v0c0.08-0.993 0.18-2.08 0.3-3.26 0.12-1.18 0.247-2.333 0.38-3.46 0.127-1.12 0.257-2.153 0.39-3.1 0.133-0.94 0.247-1.68 0.34-2.22v0c0.113-0.567 0.333-1.013 0.66-1.34 0.327-0.327 0.693-0.677 1.1-1.05v0c0.147-0.147 0.3-0.307 0.46-0.48 0.167-0.167 0.33-0.323 0.49-0.47 0.167-0.147 0.327-0.273 0.48-0.38 0.153-0.107 0.303-0.16 0.45-0.16v0c0.227 0 0.34 0.113 0.34 0.34v0c0 0.18-0.04 0.507-0.12 0.98-0.08 0.473-0.193 1.23-0.34 2.27-0.147 1.04-0.323 2.443-0.53 4.21-0.2 1.767-0.413 4.033-0.64 6.8v0c-0.053 0.553-0.113 1.213-0.18 1.98-0.06 0.76-0.123 1.57-0.19 2.43-0.067 0.853-0.127 1.723-0.18 2.61-0.06 0.887-0.113 1.723-0.16 2.51-0.053 0.793-0.093 1.513-0.12 2.16-0.033 0.653-0.05 1.177-0.05 1.57v0c0 1.12 0.117 2.003 0.35 2.65 0.233 0.64 0.627 0.96 1.18 0.96v0c0.313 0 0.59-0.14 0.83-0.42 0.247-0.273 0.483-0.65 0.71-1.13 0.227-0.48 0.463-1.043 0.71-1.69 0.247-0.64 0.517-1.333 0.81-2.08v0c0.08-0.2 0.177-0.35 0.29-0.45 0.113-0.107 0.237-0.16 0.37-0.16zM82.71-9.25v0c0.1 0 0.187 0.03 0.26 0.09 0.073 0.067 0.11 0.167 0.11 0.3v0c0 0.127-0.023 0.247-0.07 0.36v0c-0.247 0.687-0.513 1.33-0.8 1.93-0.28 0.607-0.543 1.143-0.79 1.61v0c-0.293 0.54-0.577 1.047-0.85 1.52v0c-0.347 0.533-0.727 1.04-1.14 1.52-0.413 0.48-0.863 0.903-1.35 1.27-0.493 0.367-1.023 0.657-1.59 0.87-0.573 0.213-1.177 0.32-1.81 0.32v0c-0.473 0-0.99-0.083-1.55-0.25-0.56-0.16-1.08-0.46-1.56-0.9-0.48-0.44-0.88-1.043-1.2-1.81-0.313-0.76-0.47-1.743-0.47-2.95v0c0-0.553 0.053-1.117 0.16-1.69 0.1-0.567 0.247-1.11 0.44-1.63 0.187-0.52 0.397-1.01 0.63-1.47 0.233-0.453 0.473-0.85 0.72-1.19v0c0.427-0.587 0.873-1.137 1.34-1.65 0.473-0.513 0.95-0.96 1.43-1.34 0.48-0.387 0.95-0.683 1.41-0.89 0.453-0.213 0.873-0.32 1.26-0.32v0c0.62 0 1.163 0.237 1.63 0.71 0.46 0.467 0.69 1.14 0.69 2.02v0c0 0.767-0.193 1.56-0.58 2.38-0.393 0.827-0.883 1.63-1.47 2.41-0.587 0.78-1.213 1.503-1.88 2.17-0.667 0.667-1.277 1.22-1.83 1.66v0c0.293 0.733 0.67 1.27 1.13 1.61 0.453 0.34 0.917 0.51 1.39 0.51v0c0.733 0 1.387-0.233 1.96-0.7 0.58-0.473 1.103-1.053 1.57-1.74 0.46-0.68 0.867-1.397 1.22-2.15 0.347-0.747 0.66-1.403 0.94-1.97v0c0.093-0.2 0.19-0.35 0.29-0.45 0.1-0.107 0.22-0.16 0.36-0.16zM73.22-8.08v0c0 0.96 0.073 1.807 0.22 2.54v0c0.327-0.327 0.657-0.697 0.99-1.11 0.333-0.42 0.633-0.847 0.9-1.28 0.267-0.44 0.487-0.89 0.66-1.35 0.173-0.453 0.26-0.893 0.26-1.32v0c0-0.647-0.14-1.15-0.42-1.51-0.273-0.36-0.55-0.54-0.83-0.54v0c-0.16 0-0.343 0.103-0.55 0.31-0.2 0.2-0.397 0.497-0.59 0.89-0.187 0.393-0.34 0.87-0.46 1.43-0.12 0.56-0.18 1.207-0.18 1.94zM93.97-8.5v0c-0.373 1.273-0.757 2.447-1.15 3.52-0.387 1.073-0.8 2-1.24 2.78-0.44 0.78-0.927 1.39-1.46 1.83-0.527 0.44-1.123 0.66-1.79 0.66v0c-0.813 0-1.47-0.41-1.97-1.23-0.493-0.82-0.74-1.907-0.74-3.26v0c0-0.587 0.03-1.14 0.09-1.66 0.053-0.52 0.117-1.023 0.19-1.51 0.073-0.493 0.14-0.967 0.2-1.42 0.053-0.453 0.08-0.9 0.08-1.34v0c0-0.473-0.057-0.783-0.17-0.93-0.113-0.147-0.26-0.22-0.44-0.22v0c-0.033 0-0.067 0.003-0.1 0.01-0.033 0.013-0.093 0.023-0.18 0.03-0.087 0.007-0.217 0.023-0.39 0.05-0.173 0.02-0.407 0.047-0.7 0.08v0c-0.173 0.393-0.32 0.723-0.44 0.99-0.113 0.267-0.21 0.5-0.29 0.7-0.08 0.193-0.15 0.36-0.21 0.5-0.053 0.133-0.103 0.273-0.15 0.42v0c-0.133 0.313-0.25 0.507-0.35 0.58-0.093 0.073-0.207 0.11-0.34 0.11v0c-0.093 0-0.177-0.04-0.25-0.12-0.073-0.087-0.11-0.203-0.11-0.35v0c0-0.093 0.023-0.21 0.07-0.35 0.047-0.14 0.107-0.32 0.18-0.54 0.073-0.22 0.157-0.5 0.25-0.84 0.087-0.34 0.18-0.763 0.28-1.27v0c-0.327-0.147-0.61-0.493-0.85-1.04-0.233-0.54-0.35-1.177-0.35-1.91v0c0-0.607 0.103-1.217 0.31-1.83 0.2-0.62 0.45-1.187 0.75-1.7 0.3-0.513 0.627-0.933 0.98-1.26 0.347-0.327 0.66-0.49 0.94-0.49v0c0.36 0 0.663 0.217 0.91 0.65 0.253 0.433 0.38 0.927 0.38 1.48v0c0 0.293-0.03 0.59-0.09 0.89-0.067 0.3-0.137 0.577-0.21 0.83-0.073 0.253-0.143 0.48-0.21 0.68-0.067 0.207-0.1 0.367-0.1 0.48v0c0 0.147 0.057 0.22 0.17 0.22v0c0.087 0 0.233-0.04 0.44-0.12v0l1.2-0.54c0.44-0.18 0.813-0.27 1.12-0.27v0c0.52 0 0.867 0.163 1.04 0.49 0.173 0.327 0.26 0.807 0.26 1.44v0c0 0.273-0.033 0.757-0.1 1.45-0.067 0.693-0.137 1.46-0.21 2.3-0.073 0.833-0.137 1.667-0.19 2.5-0.06 0.827-0.09 1.503-0.09 2.03v0c0 0.567 0.06 0.983 0.18 1.25 0.127 0.273 0.393 0.41 0.8 0.41v0c0.293 0 0.58-0.173 0.86-0.52 0.287-0.34 0.56-0.77 0.82-1.29 0.26-0.52 0.51-1.09 0.75-1.71 0.233-0.62 0.447-1.213 0.64-1.78v0c0.147-0.407 0.36-0.61 0.64-0.61v0c0.26 0 0.39 0.147 0.39 0.44v0c0 0.047-0.003 0.093-0.01 0.14-0.013 0.053-0.027 0.11-0.04 0.17zM102.91-8.5v0c-0.527 1.5-0.997 2.803-1.41 3.91-0.413 1.107-0.833 2.03-1.26 2.77-0.42 0.74-0.873 1.293-1.36 1.66-0.493 0.367-1.08 0.55-1.76 0.55v0c-0.393 0-0.81-0.11-1.25-0.33-0.44-0.22-0.847-0.64-1.22-1.26-0.373-0.613-0.68-1.48-0.92-2.6-0.247-1.113-0.37-2.563-0.37-4.35v0c0-0.473 0.02-1.097 0.06-1.87 0.04-0.773 0.09-1.637 0.15-2.59 0.053-0.953 0.12-1.963 0.2-3.03 0.087-1.067 0.177-2.137 0.27-3.21v0c-0.08 0.02-0.153 0.033-0.22 0.04-0.06 0.007-0.133 0.01-0.22 0.01v0c-0.873 0.1-1.517 0.187-1.93 0.26-0.407 0.073-0.65 0.15-0.73 0.23v0c-0.08 0.067-0.12 0.143-0.12 0.23 0 0.093-0.003 0.177-0.01 0.25-0.007 0.073-0.033 0.137-0.08 0.19-0.04 0.06-0.123 0.09-0.25 0.09v0c-0.08 0-0.183-0.02-0.31-0.06-0.12-0.047-0.24-0.113-0.36-0.2-0.127-0.087-0.23-0.2-0.31-0.34-0.08-0.14-0.12-0.307-0.12-0.5v0c0-0.18 0.037-0.367 0.11-0.56 0.073-0.2 0.167-0.39 0.28-0.57v0c0.113-0.193 0.28-0.427 0.5-0.7 0.22-0.28 0.513-0.563 0.88-0.85 0.367-0.28 0.817-0.543 1.35-0.79 0.54-0.247 1.177-0.443 1.91-0.59v0c0.08-0.68 0.167-1.283 0.26-1.81 0.087-0.533 0.18-1.007 0.28-1.42 0.093-0.413 0.187-0.787 0.28-1.12 0.087-0.333 0.18-0.64 0.28-0.92v0c0.193-0.633 0.437-1.117 0.73-1.45 0.293-0.333 0.627-0.687 1-1.06v0c0.407-0.407 0.753-0.68 1.04-0.82 0.287-0.14 0.503-0.217 0.65-0.23v0c0.147 0 0.28 0.043 0.4 0.13 0.12 0.093 0.18 0.253 0.18 0.48v0c0 0.127-0.007 0.237-0.02 0.33-0.02 0.087-0.037 0.163-0.05 0.23v0c-0.047 0.18-0.123 0.497-0.23 0.95-0.107 0.453-0.23 1.01-0.37 1.67-0.14 0.66-0.283 1.403-0.43 2.23-0.147 0.82-0.277 1.693-0.39 2.62v0c0.88 0.067 1.617 0.177 2.21 0.33 0.593 0.153 0.957 0.247 1.09 0.28v0c0.273 0.1 0.46 0.19 0.56 0.27 0.1 0.08 0.19 0.217 0.27 0.41v0c0.067 0.133 0.143 0.24 0.23 0.32 0.087 0.08 0.177 0.153 0.27 0.22 0.087 0.067 0.163 0.14 0.23 0.22 0.067 0.08 0.1 0.193 0.1 0.34v0c0 0.133-0.033 0.26-0.1 0.38-0.067 0.12-0.14 0.197-0.22 0.23v0c-0.113 0.067-0.323 0.13-0.63 0.19-0.313 0.053-0.69 0.11-1.13 0.17-0.44 0.053-0.94 0.11-1.5 0.17-0.56 0.053-1.14 0.113-1.74 0.18v0c-0.2 2.02-0.393 3.967-0.58 5.84-0.187 1.867-0.28 3.533-0.28 5v0c0 0.747 0.047 1.43 0.14 2.05 0.087 0.62 0.22 1.153 0.4 1.6 0.18 0.447 0.397 0.793 0.65 1.04 0.247 0.24 0.533 0.36 0.86 0.36v0c0.293 0 0.563-0.133 0.81-0.4 0.24-0.267 0.483-0.637 0.73-1.11 0.247-0.473 0.497-1.033 0.75-1.68 0.247-0.653 0.517-1.37 0.81-2.15v0c0.147-0.407 0.36-0.61 0.64-0.61v0c0.26 0 0.39 0.147 0.39 0.44v0c0 0.047-0.01 0.103-0.03 0.17-0.013 0.067-0.027 0.113-0.04 0.14zM107.28-1.73v0c0.387 0 0.727-0.13 1.02-0.39 0.293-0.26 0.543-0.603 0.75-1.03 0.2-0.42 0.367-0.913 0.5-1.48 0.127-0.56 0.223-1.14 0.29-1.74v0c-0.473-0.327-0.933-0.75-1.38-1.27-0.447-0.52-0.85-1.157-1.21-1.91v0c-0.213-0.44-0.367-0.89-0.46-1.35-0.1-0.467-0.15-0.91-0.15-1.33v0c0-0.54 0.073-1.047 0.22-1.52 0.147-0.467 0.363-0.873 0.65-1.22 0.28-0.34 0.633-0.61 1.06-0.81 0.42-0.207 0.907-0.31 1.46-0.31v0c0.7 0 1.277 0.167 1.73 0.5 0.447 0.333 0.8 0.757 1.06 1.27 0.26 0.513 0.443 1.07 0.55 1.67 0.107 0.607 0.16 1.17 0.16 1.69v0c0 0.68-0.047 1.38-0.14 2.1-0.087 0.713-0.23 1.437-0.43 2.17v0c0.607-0.047 1.147-0.213 1.62-0.5 0.467-0.287 0.863-0.77 1.19-1.45v0c0.193-0.407 0.397-0.61 0.61-0.61v0c0.113 0 0.217 0.03 0.31 0.09 0.087 0.067 0.13 0.173 0.13 0.32v0c0 0.113-0.023 0.227-0.07 0.34v0c-0.327 0.933-0.87 1.667-1.63 2.2-0.753 0.54-1.593 0.81-2.52 0.81v0c-0.28 0.793-0.62 1.547-1.02 2.26-0.393 0.707-0.86 1.327-1.4 1.86-0.533 0.54-1.143 0.963-1.83 1.27-0.687 0.313-1.443 0.47-2.27 0.47v0c-0.44 0-0.937-0.067-1.49-0.2-0.553-0.127-1.073-0.4-1.56-0.82-0.493-0.413-0.907-0.997-1.24-1.75-0.333-0.76-0.5-1.767-0.5-3.02v0c0-1.027 0.193-2.11 0.58-3.25 0.38-1.14 1.017-2.27 1.91-3.39v0c0.347-0.427 0.66-0.727 0.94-0.9 0.287-0.18 0.52-0.27 0.7-0.27v0c0.36 0 0.54 0.22 0.54 0.66v0c0 0.193-0.067 0.437-0.2 0.73-0.127 0.293-0.263 0.667-0.41 1.12-0.147 0.46-0.287 1.003-0.42 1.63-0.127 0.627-0.19 1.363-0.19 2.21v0c0 1.627 0.23 2.89 0.69 3.79 0.467 0.907 1.083 1.36 1.85 1.36zM109.99-8.91v0c0-1.66-0.157-2.853-0.47-3.58-0.307-0.72-0.647-1.007-1.02-0.86v0c-0.167 0.06-0.26 0.203-0.28 0.43-0.027 0.233-0.04 0.453-0.04 0.66v0c0 0.36 0.05 0.737 0.15 1.13 0.093 0.387 0.217 0.777 0.37 1.17 0.16 0.387 0.35 0.757 0.57 1.11 0.213 0.347 0.443 0.667 0.69 0.96v0c0.02-0.173 0.03-0.343 0.03-0.51 0-0.16 0-0.33 0-0.51zM133.94-9.25v0c0.093 0 0.177 0.037 0.25 0.11 0.073 0.073 0.11 0.173 0.11 0.3v0c0 0.133-0.023 0.257-0.07 0.37v0c-0.507 1.447-0.97 2.72-1.39 3.82-0.427 1.1-0.853 2.017-1.28 2.75-0.433 0.727-0.88 1.28-1.34 1.66-0.453 0.373-0.957 0.56-1.51 0.56v0c-0.68 0-1.233-0.16-1.66-0.48-0.42-0.313-0.753-0.723-1-1.23-0.247-0.507-0.41-1.073-0.49-1.7-0.08-0.627-0.12-1.25-0.12-1.87v0c0-0.44 0.007-0.873 0.02-1.3 0.02-0.433 0.04-0.847 0.06-1.24 0.027-0.387 0.05-0.733 0.07-1.04 0.013-0.313 0.02-0.567 0.02-0.76v0c0-0.313-0.053-0.537-0.16-0.67-0.107-0.14-0.223-0.21-0.35-0.21v0c-0.147 0-0.27 0.07-0.37 0.21-0.1 0.133-0.18 0.29-0.24 0.47v0c-0.08 0.2-0.203 0.55-0.37 1.05-0.16 0.507-0.347 1.077-0.56 1.71-0.213 0.633-0.437 1.297-0.67 1.99-0.24 0.693-0.457 1.317-0.65 1.87v0c-0.26 0.713-0.507 1.293-0.74 1.74-0.24 0.453-0.463 0.8-0.67 1.04-0.213 0.247-0.423 0.413-0.63 0.5-0.2 0.093-0.39 0.14-0.57 0.14v0c-0.167 0-0.333-0.033-0.5-0.1-0.173-0.067-0.33-0.173-0.47-0.32-0.133-0.147-0.25-0.347-0.35-0.6-0.1-0.247-0.15-0.567-0.15-0.96v0c-0.027-0.833-0.047-1.733-0.06-2.7-0.007-0.967-0.01-1.913-0.01-2.84v0c0-0.44 0.003-0.863 0.01-1.27 0.013-0.407 0.02-0.783 0.02-1.13v0c0-0.467-0.027-0.803-0.08-1.01-0.047-0.2-0.11-0.3-0.19-0.3v0c-0.18 0-0.33 0.173-0.45 0.52-0.127 0.353-0.337 0.897-0.63 1.63v0c-0.093 0.24-0.193 0.41-0.3 0.51-0.107 0.093-0.217 0.14-0.33 0.14v0c-0.1 0-0.187-0.037-0.26-0.11-0.073-0.073-0.11-0.197-0.11-0.37v0c0-0.1 0.04-0.277 0.12-0.53 0.087-0.253 0.19-0.53 0.31-0.83 0.12-0.3 0.24-0.61 0.36-0.93 0.127-0.313 0.237-0.583 0.33-0.81v0c0.147-0.38 0.323-0.767 0.53-1.16 0.2-0.4 0.427-0.767 0.68-1.1 0.253-0.333 0.53-0.61 0.83-0.83 0.3-0.22 0.63-0.33 0.99-0.33v0c0.473 0 0.893 0.26 1.26 0.78 0.367 0.52 0.567 1.31 0.6 2.37v0c0.013 0.847 0.023 1.647 0.03 2.4 0.013 0.76 0.027 1.42 0.04 1.98 0.02 0.56 0.033 1.007 0.04 1.34 0.007 0.333 0.017 0.5 0.03 0.5v0c0.033 0 0.107-0.147 0.22-0.44 0.113-0.293 0.26-0.68 0.44-1.16 0.18-0.48 0.383-1.023 0.61-1.63 0.233-0.613 0.473-1.233 0.72-1.86 0.253-0.627 0.52-1.227 0.8-1.8 0.273-0.58 0.55-1.09 0.83-1.53v0c0.293-0.473 0.607-0.83 0.94-1.07 0.333-0.247 0.71-0.37 1.13-0.37v0c0.587 0 1.01 0.347 1.27 1.04 0.26 0.687 0.39 1.617 0.39 2.79v0c0 0.293-0.007 0.653-0.02 1.08-0.02 0.42-0.04 0.867-0.06 1.34-0.027 0.473-0.047 0.947-0.06 1.42-0.02 0.467-0.03 0.897-0.03 1.29v0c0 0.667 0.03 1.207 0.09 1.62 0.053 0.42 0.13 0.743 0.23 0.97 0.1 0.227 0.207 0.38 0.32 0.46 0.113 0.08 0.227 0.12 0.34 0.12v0c0.327 0 0.623-0.147 0.89-0.44 0.267-0.293 0.523-0.69 0.77-1.19 0.24-0.507 0.483-1.08 0.73-1.72 0.247-0.647 0.517-1.327 0.81-2.04v0c0.147-0.407 0.367-0.61 0.66-0.61z" fill="#f2e3db" fill-rule="nonzero" stroke="none" stroke-width="1" stroke-linecap="butt" stroke-linejoin="miter" stroke-miterlimit="10" stroke-dasharray="" stroke-dashoffset="0" font-family="none" font-weight="none" font-size="none" text-anchor="none" style="mix-blend-mode: normal" data-fill-palette-color="quaternary" opacity="1"></path><path transform="translate(59.67,41.4)" d="M29.52-33.25v0c-0.033 0.18-0.103 0.327-0.21 0.44-0.107 0.113-0.217 0.227-0.33 0.34-0.113 0.113-0.223 0.227-0.33 0.34-0.107 0.113-0.167 0.26-0.18 0.44v0c-0.053 0.373-0.25 0.68-0.59 0.92-0.34 0.233-0.74 0.35-1.2 0.35v0c-0.387 0-1.037-0.023-1.95-0.07-0.913-0.053-1.953-0.08-3.12-0.08v0c-1.307 0-2.643 0.047-4.01 0.14-1.367 0.087-2.7 0.237-4 0.45-1.3 0.213-2.53 0.49-3.69 0.83-1.153 0.34-2.163 0.763-3.03 1.27-0.86 0.507-1.543 1.097-2.05 1.77-0.5 0.673-0.75 1.45-0.75 2.33v0c0 0.8 0.14 1.577 0.42 2.33 0.287 0.76 0.623 1.453 1.01 2.08 0.38 0.627 0.77 1.177 1.17 1.65 0.4 0.467 0.713 0.807 0.94 1.02v0c0.16 0.147 0.24 0.3 0.24 0.46v0c0 0.327-0.413 0.49-1.24 0.49v0c-0.213 0-0.51-0.04-0.89-0.12-0.387-0.08-0.8-0.217-1.24-0.41-0.44-0.2-0.89-0.47-1.35-0.81-0.467-0.34-0.887-0.77-1.26-1.29-0.373-0.527-0.68-1.147-0.92-1.86-0.233-0.713-0.35-1.56-0.35-2.54v0c0-1.4 0.353-2.753 1.06-4.06 0.707-1.313 1.667-2.493 2.88-3.54 1.213-1.053 2.633-1.933 4.26-2.64 1.627-0.707 3.36-1.173 5.2-1.4v0c0.867-0.147 1.75-0.27 2.65-0.37 0.907-0.1 1.8-0.18 2.68-0.24 0.873-0.067 1.723-0.117 2.55-0.15 0.82-0.033 1.58-0.05 2.28-0.05v0c1.3 0 2.327 0.043 3.08 0.13 0.747 0.093 1.303 0.203 1.67 0.33 0.367 0.133 0.593 0.277 0.68 0.43 0.093 0.153 0.14 0.297 0.14 0.43v0c0 0.1-0.03 0.197-0.09 0.29-0.053 0.1-0.097 0.223-0.13 0.37zM18.75-29v0c0 0.113-0.017 0.583-0.05 1.41-0.033 0.833-0.077 1.893-0.13 3.18-0.06 1.28-0.127 2.737-0.2 4.37-0.073 1.627-0.147 3.297-0.22 5.01-0.073 1.72-0.147 3.417-0.22 5.09-0.073 1.68-0.137 3.22-0.19 4.62-0.06 1.4-0.107 2.59-0.14 3.57-0.033 0.987-0.05 1.643-0.05 1.97v0c0 0.18-0.02 0.363-0.06 0.55-0.04 0.187-0.117 0.367-0.23 0.54-0.113 0.167-0.273 0.317-0.48 0.45-0.2 0.127-0.47 0.223-0.81 0.29v0c-0.293 0.047-0.56 0.133-0.8 0.26-0.233 0.12-0.443 0.247-0.63 0.38-0.187 0.127-0.353 0.24-0.5 0.34-0.147 0.093-0.287 0.14-0.42 0.14v0c-0.08 0-0.137-0.037-0.17-0.11-0.033-0.073-0.057-0.16-0.07-0.26-0.02-0.107-0.03-0.213-0.03-0.32 0-0.107 0-0.2 0-0.28v0c0.02-1.013 0.07-2.707 0.15-5.08v0c0.033-1.007 0.08-2.217 0.14-3.63 0.053-1.407 0.123-3.057 0.21-4.95 0.093-1.9 0.197-4.057 0.31-6.47 0.113-2.42 0.243-5.143 0.39-8.17v0c0.033-0.733 0.163-1.343 0.39-1.83 0.227-0.487 0.633-0.797 1.22-0.93v0c0.293-0.067 0.56-0.177 0.8-0.33 0.233-0.153 0.447-0.31 0.64-0.47 0.2-0.167 0.373-0.313 0.52-0.44 0.14-0.133 0.26-0.2 0.36-0.2v0c0.147 0 0.23 0.127 0.25 0.38 0.013 0.253 0.02 0.56 0.02 0.92zM34.89-9.25v0c0.093 0 0.177 0.03 0.25 0.09 0.073 0.067 0.11 0.167 0.11 0.3v0c0 0.127-0.023 0.247-0.07 0.36v0c-0.247 0.687-0.51 1.33-0.79 1.93-0.287 0.607-0.553 1.143-0.8 1.61v0c-0.293 0.54-0.577 1.047-0.85 1.52v0c-0.34 0.533-0.72 1.04-1.14 1.52-0.413 0.48-0.863 0.903-1.35 1.27-0.487 0.367-1.017 0.657-1.59 0.87-0.567 0.213-1.167 0.32-1.8 0.32v0c-0.473 0-0.99-0.083-1.55-0.25-0.567-0.16-1.09-0.46-1.57-0.9-0.48-0.44-0.877-1.043-1.19-1.81-0.32-0.76-0.48-1.743-0.48-2.95v0c0-0.553 0.053-1.117 0.16-1.69 0.107-0.567 0.253-1.11 0.44-1.63 0.187-0.52 0.397-1.01 0.63-1.47 0.24-0.453 0.48-0.85 0.72-1.19v0c0.427-0.587 0.877-1.137 1.35-1.65 0.467-0.513 0.94-0.96 1.42-1.34 0.48-0.387 0.95-0.683 1.41-0.89 0.453-0.213 0.877-0.32 1.27-0.32v0c0.62 0 1.16 0.237 1.62 0.71 0.467 0.467 0.7 1.14 0.7 2.02v0c0 0.767-0.197 1.56-0.59 2.38-0.387 0.827-0.873 1.63-1.46 2.41-0.587 0.78-1.213 1.503-1.88 2.17-0.667 0.667-1.277 1.22-1.83 1.66v0c0.287 0.733 0.66 1.27 1.12 1.61 0.453 0.34 0.917 0.51 1.39 0.51v0c0.733 0 1.39-0.233 1.97-0.7 0.573-0.473 1.093-1.053 1.56-1.74 0.46-0.68 0.867-1.397 1.22-2.15 0.347-0.747 0.66-1.403 0.94-1.97v0c0.1-0.2 0.197-0.35 0.29-0.45 0.1-0.107 0.223-0.16 0.37-0.16zM25.39-8.08v0c0 0.96 0.073 1.807 0.22 2.54v0c0.327-0.327 0.657-0.697 0.99-1.11 0.333-0.42 0.633-0.847 0.9-1.28 0.273-0.44 0.493-0.89 0.66-1.35 0.173-0.453 0.26-0.893 0.26-1.32v0c0-0.647-0.14-1.15-0.42-1.51-0.273-0.36-0.55-0.54-0.83-0.54v0c-0.16 0-0.343 0.103-0.55 0.31-0.2 0.2-0.393 0.497-0.58 0.89-0.187 0.393-0.343 0.87-0.47 1.43-0.12 0.56-0.18 1.207-0.18 1.94zM48-8.5v0c-0.487 1.467-0.943 2.75-1.37 3.85-0.42 1.1-0.843 2.02-1.27 2.76-0.42 0.74-0.87 1.297-1.35 1.67-0.48 0.373-1.013 0.56-1.6 0.56v0c-0.407 0-0.747-0.13-1.02-0.39-0.267-0.26-0.49-0.553-0.67-0.88-0.18-0.327-0.313-0.64-0.4-0.94-0.087-0.3-0.147-0.5-0.18-0.6v0c-0.02-0.027-0.037-0.073-0.05-0.14-0.02-0.067-0.047-0.1-0.08-0.1v0c-0.027 0-0.053 0.023-0.08 0.07-0.027 0.053-0.057 0.103-0.09 0.15v0c-0.047 0.113-0.177 0.323-0.39 0.63-0.207 0.313-0.47 0.633-0.79 0.96-0.32 0.32-0.683 0.607-1.09 0.86-0.407 0.253-0.847 0.38-1.32 0.38v0c-0.373 0-0.733-0.12-1.08-0.36-0.353-0.247-0.66-0.577-0.92-0.99-0.26-0.42-0.467-0.913-0.62-1.48-0.153-0.567-0.23-1.177-0.23-1.83v0c0-1.42 0.223-2.75 0.67-3.99 0.447-1.247 1.173-2.497 2.18-3.75v0c0.493-0.6 1.013-1.137 1.56-1.61 0.54-0.473 1.07-0.87 1.59-1.19 0.527-0.313 1.03-0.553 1.51-0.72 0.48-0.16 0.89-0.24 1.23-0.24v0c0.227 0 0.453 0.04 0.68 0.12 0.227 0.08 0.43 0.22 0.61 0.42 0.18 0.193 0.323 0.45 0.43 0.77 0.107 0.313 0.16 0.7 0.16 1.16v0c0 0.487-0.077 1.013-0.23 1.58-0.16 0.573-0.39 1.107-0.69 1.6-0.3 0.5-0.67 0.91-1.11 1.23-0.44 0.327-0.937 0.49-1.49 0.49v0c-0.34 0-0.51-0.13-0.51-0.39v0c0-0.18 0.043-0.473 0.13-0.88 0.093-0.407 0.14-0.797 0.14-1.17v0c0-0.147-0.01-0.32-0.03-0.52-0.013-0.207-0.053-0.407-0.12-0.6-0.067-0.193-0.157-0.357-0.27-0.49-0.113-0.133-0.267-0.2-0.46-0.2v0c-0.44 0-0.823 0.207-1.15 0.62-0.327 0.407-0.6 0.9-0.82 1.48-0.22 0.587-0.387 1.2-0.5 1.84-0.113 0.633-0.17 1.177-0.17 1.63v0c0 0.62 0.05 1.137 0.15 1.55 0.1 0.413 0.23 0.747 0.39 1 0.16 0.253 0.347 0.433 0.56 0.54 0.213 0.107 0.433 0.16 0.66 0.16v0c0.54 0 1.02-0.183 1.44-0.55 0.427-0.367 0.793-0.773 1.1-1.22 0.307-0.447 0.563-0.853 0.77-1.22 0.2-0.367 0.367-0.55 0.5-0.55v0c0.147 0 0.243 0.17 0.29 0.51v0c0.1 0.733 0.207 1.337 0.32 1.81 0.113 0.473 0.227 0.843 0.34 1.11 0.113 0.267 0.233 0.453 0.36 0.56 0.12 0.107 0.243 0.16 0.37 0.16v0c0.247 0 0.493-0.143 0.74-0.43 0.24-0.287 0.483-0.673 0.73-1.16 0.247-0.487 0.5-1.057 0.76-1.71 0.26-0.647 0.537-1.337 0.83-2.07v0c0.173-0.407 0.383-0.61 0.63-0.61v0c0.247 0 0.37 0.147 0.37 0.44v0c0 0.113-0.017 0.217-0.05 0.31zM58.96-8.5v0c-0.373 1.273-0.757 2.447-1.15 3.52-0.387 1.073-0.8 2-1.24 2.78-0.44 0.78-0.927 1.39-1.46 1.83-0.527 0.44-1.123 0.66-1.79 0.66v0c-0.813 0-1.47-0.41-1.97-1.23-0.493-0.82-0.74-1.907-0.74-3.26v0c0-0.587 0.03-1.14 0.09-1.66 0.053-0.52 0.117-1.023 0.19-1.51 0.073-0.493 0.14-0.967 0.2-1.42 0.053-0.453 0.08-0.9 0.08-1.34v0c0-0.473-0.057-0.783-0.17-0.93-0.113-0.147-0.26-0.22-0.44-0.22v0c-0.033 0-0.067 0.003-0.1 0.01-0.027 0.013-0.087 0.023-0.18 0.03-0.087 0.007-0.217 0.023-0.39 0.05-0.173 0.02-0.407 0.047-0.7 0.08v0c-0.173 0.393-0.32 0.723-0.44 0.99-0.113 0.267-0.21 0.5-0.29 0.7-0.08 0.193-0.15 0.36-0.21 0.5-0.053 0.133-0.103 0.273-0.15 0.42v0c-0.133 0.313-0.25 0.507-0.35 0.58-0.093 0.073-0.207 0.11-0.34 0.11v0c-0.093 0-0.177-0.04-0.25-0.12-0.073-0.087-0.11-0.203-0.11-0.35v0c0-0.093 0.023-0.21 0.07-0.35 0.047-0.14 0.107-0.32 0.18-0.54 0.073-0.22 0.157-0.5 0.25-0.84 0.087-0.34 0.18-0.763 0.28-1.27v0c-0.327-0.147-0.61-0.493-0.85-1.04-0.233-0.54-0.35-1.177-0.35-1.91v0c0-0.607 0.103-1.217 0.31-1.83 0.2-0.62 0.45-1.187 0.75-1.7 0.3-0.513 0.627-0.933 0.98-1.26 0.347-0.327 0.66-0.49 0.94-0.49v0c0.36 0 0.663 0.217 0.91 0.65 0.253 0.433 0.38 0.927 0.38 1.48v0c0 0.293-0.03 0.59-0.09 0.89-0.067 0.3-0.137 0.577-0.21 0.83-0.073 0.253-0.143 0.48-0.21 0.68-0.067 0.207-0.1 0.367-0.1 0.48v0c0 0.147 0.057 0.22 0.17 0.22v0c0.087 0 0.233-0.04 0.44-0.12v0l1.2-0.54c0.44-0.18 0.813-0.27 1.12-0.27v0c0.52 0 0.867 0.163 1.04 0.49 0.173 0.327 0.26 0.807 0.26 1.44v0c0 0.273-0.033 0.757-0.1 1.45-0.067 0.693-0.137 1.46-0.21 2.3-0.073 0.833-0.137 1.667-0.19 2.5-0.06 0.827-0.09 1.503-0.09 2.03v0c0 0.567 0.06 0.983 0.18 1.25 0.127 0.273 0.393 0.41 0.8 0.41v0c0.293 0 0.58-0.173 0.86-0.52 0.287-0.34 0.56-0.77 0.82-1.29 0.26-0.52 0.51-1.09 0.75-1.71 0.233-0.62 0.447-1.213 0.64-1.78v0c0.147-0.407 0.36-0.61 0.64-0.61v0c0.26 0 0.39 0.147 0.39 0.44v0c0 0.047-0.003 0.093-0.01 0.14-0.013 0.053-0.027 0.11-0.04 0.17zM63.31-1.73v0c0.387 0 0.727-0.13 1.02-0.39 0.293-0.26 0.543-0.603 0.75-1.03 0.2-0.42 0.367-0.913 0.5-1.48 0.127-0.56 0.223-1.14 0.29-1.74v0c-0.473-0.327-0.933-0.75-1.38-1.27-0.447-0.52-0.85-1.157-1.21-1.91v0c-0.213-0.44-0.367-0.89-0.46-1.35-0.1-0.467-0.15-0.91-0.15-1.33v0c0-0.54 0.073-1.047 0.22-1.52 0.147-0.467 0.363-0.873 0.65-1.22 0.28-0.34 0.633-0.61 1.06-0.81 0.42-0.207 0.907-0.31 1.46-0.31v0c0.7 0 1.277 0.167 1.73 0.5 0.447 0.333 0.8 0.757 1.06 1.27 0.26 0.513 0.443 1.07 0.55 1.67 0.107 0.607 0.16 1.17 0.16 1.69v0c0 0.68-0.047 1.38-0.14 2.1-0.087 0.713-0.23 1.437-0.43 2.17v0c0.607-0.047 1.147-0.213 1.62-0.5 0.467-0.287 0.863-0.77 1.19-1.45v0c0.193-0.407 0.397-0.61 0.61-0.61v0c0.113 0 0.217 0.03 0.31 0.09 0.087 0.067 0.13 0.173 0.13 0.32v0c0 0.113-0.023 0.227-0.07 0.34v0c-0.327 0.933-0.87 1.667-1.63 2.2-0.753 0.54-1.593 0.81-2.52 0.81v0c-0.28 0.793-0.62 1.547-1.02 2.26-0.393 0.707-0.86 1.327-1.4 1.86-0.533 0.54-1.143 0.963-1.83 1.27-0.687 0.313-1.443 0.47-2.27 0.47v0c-0.44 0-0.937-0.067-1.49-0.2-0.553-0.127-1.073-0.4-1.56-0.82-0.487-0.413-0.9-0.997-1.24-1.75-0.333-0.76-0.5-1.767-0.5-3.02v0c0-1.027 0.193-2.11 0.58-3.25 0.38-1.14 1.017-2.27 1.91-3.39v0c0.347-0.427 0.66-0.727 0.94-0.9 0.287-0.18 0.52-0.27 0.7-0.27v0c0.36 0 0.54 0.22 0.54 0.66v0c0 0.193-0.067 0.437-0.2 0.73-0.127 0.293-0.263 0.667-0.41 1.12-0.147 0.46-0.287 1.003-0.42 1.63-0.127 0.627-0.19 1.363-0.19 2.21v0c0 1.627 0.23 2.89 0.69 3.79 0.467 0.907 1.083 1.36 1.85 1.36zM66.02-8.91v0c0-1.66-0.157-2.853-0.47-3.58-0.307-0.72-0.647-1.007-1.02-0.86v0c-0.167 0.06-0.26 0.203-0.28 0.43-0.027 0.233-0.04 0.453-0.04 0.66v0c0 0.36 0.05 0.737 0.15 1.13 0.093 0.387 0.217 0.777 0.37 1.17 0.16 0.387 0.35 0.757 0.57 1.11 0.22 0.347 0.45 0.667 0.69 0.96v0c0.02-0.173 0.03-0.343 0.03-0.51 0-0.16 0-0.33 0-0.51zM77.15-1.73v0c0.387 0 0.727-0.13 1.02-0.39 0.293-0.26 0.543-0.603 0.75-1.03 0.2-0.42 0.367-0.913 0.5-1.48 0.127-0.56 0.223-1.14 0.29-1.74v0c-0.473-0.327-0.933-0.75-1.38-1.27-0.447-0.52-0.85-1.157-1.21-1.91v0c-0.207-0.44-0.36-0.89-0.46-1.35-0.1-0.467-0.15-0.91-0.15-1.33v0c0-0.54 0.073-1.047 0.22-1.52 0.147-0.467 0.363-0.873 0.65-1.22 0.287-0.34 0.64-0.61 1.06-0.81 0.427-0.207 0.917-0.31 1.47-0.31v0c0.7 0 1.273 0.167 1.72 0.5 0.447 0.333 0.8 0.757 1.06 1.27 0.26 0.513 0.443 1.07 0.55 1.67 0.107 0.607 0.16 1.17 0.16 1.69v0c0 0.68-0.047 1.38-0.14 2.1-0.087 0.713-0.227 1.437-0.42 2.17v0c0.6-0.047 1.137-0.213 1.61-0.5 0.473-0.287 0.87-0.77 1.19-1.45v0c0.2-0.407 0.403-0.61 0.61-0.61v0c0.12 0 0.223 0.03 0.31 0.09 0.087 0.067 0.13 0.173 0.13 0.32v0c0 0.113-0.023 0.227-0.07 0.34v0c-0.327 0.933-0.867 1.667-1.62 2.2-0.76 0.54-1.603 0.81-2.53 0.81v0c-0.273 0.793-0.61 1.547-1.01 2.26-0.4 0.707-0.87 1.327-1.41 1.86-0.533 0.54-1.143 0.963-1.83 1.27-0.68 0.313-1.437 0.47-2.27 0.47v0c-0.44 0-0.937-0.067-1.49-0.2-0.553-0.127-1.073-0.4-1.56-0.82-0.487-0.413-0.897-0.997-1.23-1.75-0.333-0.76-0.5-1.767-0.5-3.02v0c0-1.027 0.19-2.11 0.57-3.25 0.38-1.14 1.02-2.27 1.92-3.39v0c0.34-0.427 0.653-0.727 0.94-0.9 0.28-0.18 0.51-0.27 0.69-0.27v0c0.36 0 0.54 0.22 0.54 0.66v0c0 0.193-0.067 0.437-0.2 0.73-0.127 0.293-0.263 0.667-0.41 1.12-0.147 0.46-0.287 1.003-0.42 1.63-0.127 0.627-0.19 1.363-0.19 2.21v0c0 1.627 0.233 2.89 0.7 3.79 0.46 0.907 1.073 1.36 1.84 1.36zM79.86-8.91v0c0-1.66-0.157-2.853-0.47-3.58-0.307-0.72-0.647-1.007-1.02-0.86v0c-0.16 0.06-0.253 0.203-0.28 0.43-0.027 0.233-0.04 0.453-0.04 0.66v0c0 0.36 0.05 0.737 0.15 1.13 0.093 0.387 0.22 0.777 0.38 1.17 0.153 0.387 0.34 0.757 0.56 1.11 0.22 0.347 0.45 0.667 0.69 0.96v0c0.02-0.173 0.03-0.343 0.03-0.51 0-0.16 0-0.33 0-0.51zM109.03-9.25v0c0.233 0 0.35 0.13 0.35 0.39v0c0 0.093-0.027 0.213-0.08 0.36v0c-0.373 1.093-0.727 2.097-1.06 3.01-0.333 0.907-0.663 1.72-0.99 2.44v0c-0.193 0.44-0.403 0.863-0.63 1.27-0.233 0.407-0.497 0.767-0.79 1.08-0.287 0.32-0.62 0.577-1 0.77-0.373 0.2-0.803 0.3-1.29 0.3v0c-0.327 0-0.643-0.047-0.95-0.14-0.313-0.087-0.6-0.25-0.86-0.49-0.26-0.233-0.48-0.547-0.66-0.94-0.173-0.387-0.293-0.873-0.36-1.46v0c-0.033-0.36-0.06-0.733-0.08-1.12-0.013-0.393-0.02-0.787-0.02-1.18v0c0-0.873 0.023-1.707 0.07-2.5 0.053-0.787 0.08-1.383 0.08-1.79v0c0-0.327-0.053-0.563-0.16-0.71-0.107-0.147-0.227-0.22-0.36-0.22v0c-0.173 0-0.307 0.07-0.4 0.21-0.087 0.133-0.163 0.29-0.23 0.47v0c-0.08 0.2-0.203 0.54-0.37 1.02-0.16 0.48-0.343 1.02-0.55 1.62-0.2 0.6-0.413 1.23-0.64 1.89-0.227 0.66-0.44 1.267-0.64 1.82v0c-0.24 0.713-0.47 1.287-0.69 1.72-0.22 0.433-0.433 0.77-0.64 1.01-0.2 0.247-0.4 0.41-0.6 0.49-0.193 0.087-0.387 0.13-0.58 0.13v0c-0.167 0-0.34-0.033-0.52-0.1-0.173-0.067-0.34-0.173-0.5-0.32-0.153-0.147-0.283-0.347-0.39-0.6-0.107-0.253-0.167-0.567-0.18-0.94v0c-0.013-0.26-0.02-0.523-0.02-0.79 0-0.267 0-0.54 0-0.82v0c0-0.6 0.007-1.203 0.02-1.81 0.013-0.6 0.033-1.16 0.06-1.68 0.027-0.52 0.047-0.993 0.06-1.42 0.02-0.42 0.03-0.743 0.03-0.97v0c0-0.327-0.053-0.563-0.16-0.71-0.107-0.147-0.227-0.22-0.36-0.22v0c-0.147 0-0.27 0.063-0.37 0.19-0.107 0.133-0.193 0.29-0.26 0.47v0c-0.08 0.193-0.203 0.54-0.37 1.04-0.16 0.493-0.343 1.053-0.55 1.68-0.2 0.627-0.413 1.277-0.64 1.95-0.227 0.68-0.44 1.297-0.64 1.85v0c-0.26 0.733-0.5 1.317-0.72 1.75-0.22 0.44-0.433 0.78-0.64 1.02-0.213 0.233-0.413 0.39-0.6 0.47-0.187 0.087-0.38 0.13-0.58 0.13v0c-0.16 0-0.33-0.033-0.51-0.1-0.18-0.067-0.347-0.177-0.5-0.33-0.153-0.153-0.283-0.357-0.39-0.61-0.107-0.253-0.16-0.567-0.16-0.94v0c-0.013-0.487-0.02-0.933-0.02-1.34 0-0.407 0-0.813 0-1.22v0c0-0.573 0.003-1.163 0.01-1.77 0.007-0.613 0.027-1.337 0.06-2.17v0c0.013-0.727 0.067-1.417 0.16-2.07 0.087-0.653 0.187-1.227 0.3-1.72 0.113-0.5 0.223-0.91 0.33-1.23 0.107-0.327 0.193-0.533 0.26-0.62v0c0.113-0.127 0.24-0.26 0.38-0.4 0.14-0.14 0.273-0.21 0.4-0.21v0c0.133 0 0.23 0.037 0.29 0.11 0.067 0.073 0.14 0.11 0.22 0.11v0c0.1 0 0.223-0.043 0.37-0.13 0.147-0.087 0.327-0.197 0.54-0.33v0c0.113-0.067 0.227-0.137 0.34-0.21 0.113-0.073 0.233-0.11 0.36-0.11v0c0.18 0 0.27 0.213 0.27 0.64v0c0 0.127-0.02 0.39-0.06 0.79-0.04 0.4-0.077 0.797-0.11 1.19v0c-0.047 0.7-0.093 1.393-0.14 2.08-0.053 0.693-0.1 1.333-0.14 1.92-0.04 0.587-0.067 1.09-0.08 1.51-0.02 0.427-0.03 0.72-0.03 0.88v0c0 0.26 0.017 0.39 0.05 0.39v0c0.013 0 0.083-0.157 0.21-0.47 0.12-0.32 0.273-0.737 0.46-1.25 0.187-0.513 0.4-1.083 0.64-1.71 0.233-0.627 0.48-1.253 0.74-1.88 0.26-0.627 0.523-1.22 0.79-1.78 0.273-0.56 0.54-1.02 0.8-1.38v0c0.327-0.453 0.667-0.8 1.02-1.04 0.36-0.233 0.71-0.35 1.05-0.35v0c0.687 0 1.127 0.43 1.32 1.29 0.193 0.867 0.29 2.147 0.29 3.84v0c0 0.727-0.013 1.483-0.04 2.27-0.033 0.78-0.05 1.553-0.05 2.32v0c0 0.093 0.017 0.14 0.05 0.14v0c0.013 0 0.077-0.157 0.19-0.47 0.113-0.32 0.263-0.737 0.45-1.25 0.187-0.513 0.403-1.087 0.65-1.72 0.247-0.633 0.503-1.263 0.77-1.89 0.267-0.627 0.533-1.217 0.8-1.77 0.273-0.553 0.54-1.01 0.8-1.37v0c0.327-0.44 0.667-0.78 1.02-1.02 0.36-0.247 0.71-0.37 1.05-0.37v0c0.293 0 0.547 0.093 0.76 0.28 0.213 0.187 0.38 0.447 0.5 0.78 0.12 0.333 0.21 0.723 0.27 1.17 0.053 0.447 0.08 0.94 0.08 1.48v0c0 0.293-0.01 0.65-0.03 1.07-0.027 0.427-0.053 0.877-0.08 1.35-0.02 0.473-0.04 0.957-0.06 1.45-0.013 0.493-0.02 0.943-0.02 1.35v0c0 0.64 0.027 1.163 0.08 1.57 0.06 0.407 0.14 0.723 0.24 0.95 0.093 0.227 0.207 0.38 0.34 0.46 0.127 0.087 0.273 0.13 0.44 0.13v0c0.293 0 0.557-0.137 0.79-0.41 0.24-0.267 0.477-0.637 0.71-1.11 0.233-0.473 0.473-1.03 0.72-1.67 0.247-0.647 0.523-1.35 0.83-2.11v0c0.147-0.407 0.373-0.61 0.68-0.61zM116.21-5.1l-0.51 1.32 0.34-0.3c0.34-0.307 0.777-0.82 1.31-1.54 0.527-0.713 1.05-1.72 1.57-3.02v0c0.18-0.407 0.407-0.61 0.68-0.61v0c0.233 0 0.35 0.13 0.35 0.39v0c0 0.093-0.027 0.213-0.08 0.36v0c-0.373 1.06-0.777 1.963-1.21 2.71-0.427 0.753-0.87 1.39-1.33 1.91-0.453 0.52-0.903 0.94-1.35 1.26-0.447 0.313-0.867 0.553-1.26 0.72v0c-0.42 0.633-0.913 1.18-1.48 1.64-0.56 0.467-1.213 0.7-1.96 0.7v0c-0.487 0-0.903-0.107-1.25-0.32-0.34-0.213-0.617-0.473-0.83-0.78-0.207-0.307-0.36-0.643-0.46-1.01-0.1-0.367-0.15-0.697-0.15-0.99v0c0-0.553 0.07-1.05 0.21-1.49 0.14-0.44 0.307-0.813 0.5-1.12 0.193-0.313 0.4-0.547 0.62-0.7 0.22-0.153 0.403-0.23 0.55-0.23v0c0.2 0 0.397 0.163 0.59 0.49 0.193 0.327 0.403 0.78 0.63 1.36v0c0.327 0.88 0.603 1.517 0.83 1.91v0c0.247-0.033 0.483-0.07 0.71-0.11 0.227-0.04 0.457-0.1 0.69-0.18v0c0.113-0.233 0.17-0.437 0.17-0.61v0c0-0.293-0.083-0.64-0.25-1.04-0.16-0.4-0.367-0.823-0.62-1.27-0.253-0.447-0.533-0.903-0.84-1.37-0.313-0.46-0.62-0.9-0.92-1.32-0.3-0.413-0.58-0.793-0.84-1.14-0.26-0.353-0.463-0.643-0.61-0.87v0c-0.113 0.373-0.21 0.693-0.29 0.96-0.087 0.273-0.17 0.507-0.25 0.7v0c-0.113 0.327-0.213 0.543-0.3 0.65-0.093 0.1-0.213 0.15-0.36 0.15v0c-0.26 0-0.39-0.153-0.39-0.46v0c0-0.113 0.017-0.22 0.05-0.32v0c0.133-0.42 0.243-0.797 0.33-1.13 0.093-0.333 0.17-0.613 0.23-0.84v0c0.067-0.28 0.123-0.517 0.17-0.71v0c-0.273-0.347-0.52-0.743-0.74-1.19-0.22-0.447-0.33-1.02-0.33-1.72v0c0-0.5 0.093-1.057 0.28-1.67 0.187-0.613 0.427-1.183 0.72-1.71 0.293-0.527 0.617-0.97 0.97-1.33 0.347-0.36 0.683-0.54 1.01-0.54v0c0.193 0 0.367 0.063 0.52 0.19 0.16 0.12 0.29 0.277 0.39 0.47 0.107 0.2 0.19 0.423 0.25 0.67 0.053 0.253 0.08 0.503 0.08 0.75v0c0 0.553-0.097 1.18-0.29 1.88v0c-0.013 0.067-0.033 0.16-0.06 0.28-0.027 0.12-0.04 0.247-0.04 0.38v0c0 0.473 0.31 1.13 0.93 1.97 0.62 0.847 1.393 1.8 2.32 2.86v0c0.44 0.507 0.757 1.04 0.95 1.6 0.2 0.56 0.3 1.207 0.3 1.94v0c0 0.227-0.027 0.477-0.08 0.75-0.047 0.267-0.103 0.49-0.17 0.67z" fill="#f2e3db" fill-rule="nonzero" stroke="none" stroke-width="1" stroke-linecap="butt" stroke-linejoin="miter" stroke-miterlimit="10" stroke-dasharray="" stroke-dashoffset="0" font-family="none" font-weight="none" font-size="none" text-anchor="none" style="mix-blend-mode: normal" data-fill-palette-color="quaternary" opacity="1"></path></g></svg></g></svg></g><g transform="matrix(1,0,0,1,0,155.06550602501838)"><svg viewBox="0 0 224 17.52012882447665" height="17.52012882447665" width="224"><g transform="matrix(1,0,0,1,0,0)"><svg width="224" viewBox="1.4 -38.6 651.98 51" height="17.52012882447665" data-palette-color="#f2e3db"><path d="M25.3-1.6L25.3 0 18.1 0 18.1-5.8Q17.05-2.95 14.7-1.13 12.35 0.7 8.88 0.7 5.4 0.7 3.4-1.55 1.4-3.8 1.4-7.6L1.4-7.6Q1.4-14.65 5.08-19.33 8.75-24 14.1-24L14.1-24Q15.3-24 18.1-23L18.1-23 18.1-33Q18.1-33.95 17.45-34.38 16.8-34.8 15.2-34.8L15.2-34.8 15.2-36.2Q16.25-36.2 18.3-36.75 20.35-37.3 21.2-37.9L21.2-37.9 22.1-38.1 22.1-3.4Q22.1-2.45 22.48-2.02 22.85-1.6 24.3-1.6L24.3-1.6 25.3-1.6ZM18.1-9.9L18.1-9.9 18.1-18.8Q17.9-19.1 17.5-19.6 17.1-20.1 15.83-20.9 14.55-21.7 13.2-21.7L13.2-21.7Q9.55-21.7 7.13-18.25 4.7-14.8 4.7-9.5L4.7-9.5Q4.7-6.55 6.48-4.63 8.25-2.7 11.03-2.7 13.8-2.7 15.95-5.73 18.1-8.75 18.1-9.9ZM34.12-34.8Q35.25-34.8 35.87-34.05 36.5-33.3 36.5-32.13 36.5-30.95 35.55-30.18 34.6-29.4 33.47-29.4 32.35-29.4 31.72-30.15 31.1-30.9 31.1-32.02 31.1-33.15 32.05-33.98 33-34.8 34.12-34.8ZM39.6-1.4L39.6 0 29.5 0 29.5-1.4 30.3-1.4Q31.65-1.4 32.02-1.85 32.4-2.3 32.4-3.3L32.4-3.3 32.4-18.3Q32.4-19.25 31.77-19.68 31.15-20.1 29.5-20.1L29.5-20.1 29.5-21.5Q30.5-21.5 32.52-22.23 34.55-22.95 35.6-23.6L35.6-23.6 36.5-23.8 36.5-3.6Q36.5-2.8 36.57-2.45 36.65-2.1 37.15-1.75 37.65-1.4 38.7-1.4L38.7-1.4 39.6-1.4ZM43.6-1.4L43.6-1.4 44.1-6.8 45.5-6.7Q45.5-5 47.7-3.45 49.9-1.9 52.45-1.9L52.45-1.9Q57.7-1.9 57.7-5.1L57.7-5.1Q57.7-6.7 56.35-7.95 55-9.2 53.1-10.03 51.2-10.85 49.3-11.73 47.4-12.6 46.05-14.03 44.7-15.45 44.7-17.3L44.7-17.3Q44.7-23.8 54.3-23.8L54.3-23.8Q56.45-23.8 59-22.6L59-22.6 58.7-17.6 57.5-17.6Q57.5-19 55.87-20.3 54.25-21.6 52.35-21.6 50.45-21.6 49.12-20.85 47.8-20.1 47.8-18.63 47.8-17.15 49.15-16.2 50.5-15.25 52.4-14.65 54.3-14.05 56.2-13.3 58.09-12.55 59.45-10.85 60.8-9.15 60.8-6.6 60.8-4.05 59.15-2.35L59.15-2.35Q56.2 0.7 50.6 0.7L50.6 0.7Q46.25 0.7 43.6-1.4ZM84.19-6.1L84.19-6.1 85.09-5.2Q81.89 0.7 73.59 0.7L73.59 0.7Q69.74 0.7 67.02-2.7 64.29-6.1 64.29-10.3L64.29-10.3Q64.29-13 65.62-15.73 66.94-18.45 68.37-20.08 69.79-21.7 72.27-22.85 74.74-24 77.49-24 80.24-24 83.19-22.9L83.19-22.9 82.89-18.3 81.39-18.3Q81.39-19.6 79.77-20.45 78.14-21.3 76.14-21.3 74.14-21.3 72.54-20.68 70.94-20.05 70.12-19.15 69.29-18.25 68.79-17L68.79-17Q67.99-15.15 67.99-12.9L67.99-12.9Q67.99-9 70.44-5.7 72.89-2.4 76.39-2.4L76.39-2.4Q78.89-2.4 81.02-3.43 83.14-4.45 84.19-6.1ZM98.09 0.7L98.09 0.7Q93.69 0.7 90.74-2.6 87.79-5.9 87.79-10.3L87.79-10.3Q87.79-15.9 92.02-19.95 96.24-24 100.94-24 105.64-24 108.52-20.68 111.39-17.35 111.39-13L111.39-13Q111.39-7.55 107.37-3.43 103.34 0.7 98.09 0.7ZM91.29-13Q91.29-8.35 94.12-5.28 96.94-2.2 100.47-2.2 103.99-2.2 105.99-4.85 107.99-7.5 107.99-10.3L107.99-10.3Q107.99-14.55 105.37-17.73 102.74-20.9 98.99-20.9 95.24-20.9 93.27-18.38 91.29-15.85 91.29-13L91.29-13ZM123.59 0.5L122.79 0.7 115.19-19.6Q114.74-20.75 114.21-21.28 113.69-21.8 112.59-21.8L112.59-21.8 111.89-21.8 111.89-23.3 121.19-23.3 121.09-21.8 120.59-21.8Q119.09-21.8 119.09-20.9L119.09-20.9Q119.09-20.3 119.19-20.1L119.19-20.1 124.79-5.4 130.49-19.8Q130.89-20.6 130.89-21.05 130.89-21.5 130.36-21.65 129.84-21.8 127.99-21.8L127.99-21.8 127.39-21.8 127.39-23.3 136.79-23.3 136.79-21.8 136.39-21.8Q134.79-21.8 134.11-21.3 133.44-20.8 132.89-19.4L132.89-19.4 126.29-2.5Q125.89-2.5 124.74-1.18 123.59 0.15 123.59 0.5L123.59 0.5ZM157.44-6.1L157.44-6.1 158.34-5.2Q155.14 0.7 146.84 0.7L146.84 0.7Q142.99 0.7 140.26-2.7 137.54-6.1 137.54-10.3L137.54-10.3Q137.54-15.95 141.21-19.98 144.89-24 150.14-24L150.14-24Q152.64-24 154.54-22.55L154.54-22.55Q157.94-19.9 157.94-15.7L157.94-15.7Q157.94-15.1 157.71-14.25 157.49-13.4 157.34-13.4L157.34-13.4 141.24-12.9Q141.24-9 143.69-5.7 146.14-2.4 149.64-2.4L149.64-2.4Q152.14-2.4 154.26-3.43 156.39-4.45 157.44-6.1ZM141.74-14.9L141.74-14.9 153.44-15.4Q153.54-15.4 153.54-16.3L153.54-16.3Q153.54-18.9 152.01-20 150.49-21.1 147.81-21.1 145.14-21.1 143.44-19.45 141.74-17.8 141.74-14.9ZM172.98-1.4L172.98 0 162.18 0 162.18-1.4 162.98-1.4Q164.33-1.4 164.71-1.85 165.08-2.3 165.08-3.3L165.08-3.3 165.08-18.3Q165.08-19.25 164.46-19.68 163.83-20.1 162.18-20.1L162.18-20.1 162.18-21.5Q163.18-21.5 165.21-22.23 167.23-22.95 168.28-23.6L168.28-23.6 169.18-23.8 169.18-17.6Q170.98-21.55 173.28-22.83 175.58-24.1 180.08-24.1L180.08-24.1 179.78-18.3 178.28-18.3Q178.28-19 177.76-19.65 177.23-20.3 176.08-20.3L176.08-20.3Q173.58-20.3 171.38-17.6 169.18-14.9 169.18-12.4L169.18-12.4 169.18-3.6Q169.18-2.8 169.26-2.45 169.33-2.1 169.83-1.75 170.33-1.4 171.38-1.4L171.38-1.4 172.98-1.4ZM191.88 11.6L191.88 11.6 192.68 7.7 193.38 7.7Q193.48 8.25 194.28 8.93 195.08 9.6 195.98 9.6L195.98 9.6Q199.08 9.6 200.38 7.5 201.68 5.4 203.08-0.1L203.08-0.1 195.48-19.8Q195.03-20.85 194.53-21.33 194.03-21.8 192.98-21.8L192.98-21.8 192.28-21.8 192.28-23.3 202.08-23.3 202.08-21.8 201.78-21.8Q199.68-21.8 199.68-20.6L199.68-20.6Q199.68-20.35 200.18-19L200.18-19 205.28-5.4 210.88-19.5Q211.48-20.7 211.48-21L211.48-21Q211.48-21.45 210.9-21.63 210.33-21.8 208.58-21.8L208.58-21.8 208.18-21.8 208.18-23.3 217.48-23.3 217.48-21.8 216.98-21.8Q215.28-21.8 214.63-21.3 213.98-20.8 213.48-19.4L213.48-19.4 203.38 5.9Q202.03 9.2 200.15 10.8 198.28 12.4 195.08 12.4L195.08 12.4Q193.88 12.4 191.88 11.6ZM228.18 0.7L228.18 0.7Q223.78 0.7 220.83-2.6 217.88-5.9 217.88-10.3L217.88-10.3Q217.88-15.9 222.1-19.95 226.33-24 231.03-24 235.73-24 238.6-20.68 241.48-17.35 241.48-13L241.48-13Q241.48-7.55 237.45-3.43 233.43 0.7 228.18 0.7ZM221.38-13Q221.38-8.35 224.2-5.28 227.03-2.2 230.55-2.2 234.08-2.2 236.08-4.85 238.08-7.5 238.08-10.3L238.08-10.3Q238.08-14.55 235.45-17.73 232.83-20.9 229.08-20.9 225.33-20.9 223.35-18.38 221.38-15.85 221.38-13L221.38-13ZM269.67-1.4L269.67 0 262.47 0 262.47-5.9Q261.32-2.75 258.92-1.03 256.52 0.7 253.07 0.7L253.07 0.7Q251.27 0.7 250.02-0.1 248.77-0.9 248.22-2.15L248.22-2.15Q247.27-4.3 247.27-6.4L247.27-6.4 247.27-18.3Q247.27-20.6 244.37-20.6L244.37-20.6 244.37-22Q245.37-22 247.4-22.55 249.42-23.1 250.37-23.7L250.37-23.7 251.27-23.8 251.27-7.3Q251.27-5.05 252.35-3.88 253.42-2.7 255.37-2.7L255.37-2.7Q258.17-2.7 260.32-5.7 262.47-8.7 262.47-10.2L262.47-10.2 262.47-18.3Q262.47-20.6 259.57-20.6L259.57-20.6 259.57-22Q260.67-22 262.7-22.55 264.72-23.1 265.67-23.7L265.67-23.7 266.57-23.8 266.57-3.4Q266.57-2.7 266.67-2.35L266.67-2.35Q266.92-1.4 268.77-1.4L268.77-1.4 269.67-1.4ZM284.37-1.4L284.37 0 273.57 0 273.57-1.4 274.37-1.4Q275.72-1.4 276.1-1.85 276.47-2.3 276.47-3.3L276.47-3.3 276.47-18.3Q276.47-19.25 275.85-19.68 275.22-20.1 273.57-20.1L273.57-20.1 273.57-21.5Q274.57-21.5 276.6-22.23 278.62-22.95 279.67-23.6L279.67-23.6 280.57-23.8 280.57-17.6Q282.37-21.55 284.67-22.83 286.97-24.1 291.47-24.1L291.47-24.1 291.17-18.3 289.67-18.3Q289.67-19 289.15-19.65 288.62-20.3 287.47-20.3L287.47-20.3Q284.97-20.3 282.77-17.6 280.57-14.9 280.57-12.4L280.57-12.4 280.57-3.6Q280.57-2.8 280.65-2.45 280.72-2.1 281.22-1.75 281.72-1.4 282.77-1.4L282.77-1.4 284.37-1.4ZM331.27-1.4L331.27 0 322.57 0 322.57-1.4 322.87-1.4Q323.37-1.4 323.72-1.93 324.07-2.45 324.07-3.3L324.07-3.3 324.07-16Q324.07-20.6 320.07-20.6L320.07-20.6Q317.22-20.6 315.04-17.6 312.87-14.6 312.87-13.1L312.87-13.1 312.87-3.6Q312.87-2.85 312.97-2.45L312.97-2.45Q313.22-1.4 315.07-1.4L315.07-1.4 316.07-1.4 316.07 0 305.97 0 305.97-1.4 306.67-1.4Q308.02-1.4 308.44-1.88 308.87-2.35 308.87-3.3L308.87-3.3 308.87-33Q308.87-33.95 308.22-34.38 307.57-34.8 305.97-34.8L305.97-34.8 305.97-36.2Q307.02-36.2 309.07-36.75 311.12-37.3 311.97-37.9L311.97-37.9 312.87-38.1 312.87-17.4Q315.47-24 322.27-24L322.27-24Q324.07-24 325.34-23.2 326.62-22.4 327.17-21.15L327.17-21.15Q328.17-19.05 328.17-16.9L328.17-16.9 328.17-3.4Q328.17-2.7 328.27-2.35L328.27-2.35Q328.47-1.4 330.27-1.4L330.27-1.4 331.27-1.4ZM356.66-1.4L356.66 0 349.46 0 349.46-4Q346.96-1.3 345.31-0.3 343.66 0.7 340.84 0.7 338.01 0.7 336.44-0.63 334.86-1.95 334.86-4.35 334.86-6.75 336.94-9.03 339.01-11.3 341.79-12.48 344.56-13.65 346.66-14.28 348.76-14.9 349.46-14.9L349.46-14.9 349.46-16Q349.46-20.7 345.56-20.7L345.56-20.7Q342.86-20.7 340.54-19.55 338.21-18.4 337.06-16.6L337.06-16.6 336.06-17.5Q339.41-24 347.66-24L347.66-24Q349.76-24 351.14-22.88 352.51-21.75 352.99-20.25 353.46-18.75 353.46-16.9L353.46-16.9 353.46-3.4Q353.46-2.75 353.56-2.4 353.66-2.05 354.19-1.73 354.71-1.4 355.76-1.4L355.76-1.4 356.66-1.4ZM349.46-6.8L349.46-6.8 349.46-12.9Q345.56-12.15 342.21-9.9 338.86-7.65 338.86-5L338.86-5Q338.86-3.95 339.89-3.18 340.91-2.4 342.44-2.4 343.96-2.4 346.06-3.78 348.16-5.15 349.46-6.8ZM369.41 0.5L368.61 0.7 361.01-19.6Q360.56-20.75 360.04-21.28 359.51-21.8 358.41-21.8L358.41-21.8 357.71-21.8 357.71-23.3 367.01-23.3 366.91-21.8 366.41-21.8Q364.91-21.8 364.91-20.9L364.91-20.9Q364.91-20.3 365.01-20.1L365.01-20.1 370.61-5.4 376.31-19.8Q376.71-20.6 376.71-21.05 376.71-21.5 376.19-21.65 375.66-21.8 373.81-21.8L373.81-21.8 373.21-21.8 373.21-23.3 382.61-23.3 382.61-21.8 382.21-21.8Q380.61-21.8 379.94-21.3 379.26-20.8 378.71-19.4L378.71-19.4 372.11-2.5Q371.71-2.5 370.56-1.18 369.41 0.15 369.41 0.5L369.41 0.5ZM403.26-6.1L403.26-6.1 404.16-5.2Q400.96 0.7 392.66 0.7L392.66 0.7Q388.81 0.7 386.08-2.7 383.36-6.1 383.36-10.3L383.36-10.3Q383.36-15.95 387.03-19.98 390.71-24 395.96-24L395.96-24Q398.46-24 400.36-22.55L400.36-22.55Q403.76-19.9 403.76-15.7L403.76-15.7Q403.76-15.1 403.53-14.25 403.31-13.4 403.16-13.4L403.16-13.4 387.06-12.9Q387.06-9 389.51-5.7 391.96-2.4 395.46-2.4L395.46-2.4Q397.96-2.4 400.08-3.43 402.21-4.45 403.26-6.1ZM387.56-14.9L387.56-14.9 399.26-15.4Q399.36-15.4 399.36-16.3L399.36-16.3Q399.36-18.9 397.83-20 396.31-21.1 393.63-21.1 390.96-21.1 389.26-19.45 387.56-17.8 387.56-14.9ZM433.56-1.4L433.56 0 424.96 0 424.96-1.4 425.16-1.4Q425.71-1.4 426.08-1.95 426.46-2.5 426.46-3.3L426.46-3.3 426.46-16Q426.46-18.25 425.38-19.43 424.31-20.6 422.36-20.6L422.36-20.6Q419.56-20.6 417.41-17.6 415.26-14.6 415.26-13.1L415.26-13.1 415.26-3.6Q415.26-2.8 415.33-2.45 415.41-2.1 415.91-1.75 416.41-1.4 417.46-1.4L417.46-1.4 418.36-1.4 418.36 0 408.26 0 408.26-1.4 409.06-1.4Q410.41-1.4 410.78-1.85 411.16-2.3 411.16-3.3L411.16-3.3 411.16-18.3Q411.16-19.25 410.53-19.68 409.91-20.1 408.26-20.1L408.26-20.1 408.26-21.5Q409.26-21.5 411.28-22.23 413.31-22.95 414.36-23.6L414.36-23.6 415.26-23.8 415.26-17.4Q416.41-20.55 418.81-22.28 421.21-24 424.66-24L424.66-24Q426.46-24 427.71-23.2 428.96-22.4 429.51-21.15L429.51-21.15Q430.46-19 430.46-16.9L430.46-16.9 430.46-3.4Q430.46-2.7 430.56-2.35L430.56-2.35Q430.81-1.4 432.66-1.4L432.66-1.4 433.56-1.4ZM459.55 0.7L459.55 0.7Q455.15 0.7 452.2-2.6 449.25-5.9 449.25-10.3L449.25-10.3Q449.25-15.9 453.48-19.95 457.7-24 462.4-24 467.1-24 469.98-20.68 472.85-17.35 472.85-13L472.85-13Q472.85-7.55 468.83-3.43 464.8 0.7 459.55 0.7ZM452.75-13Q452.75-8.35 455.58-5.28 458.4-2.2 461.93-2.2 465.45-2.2 467.45-4.85 469.45-7.5 469.45-10.3L469.45-10.3Q469.45-14.55 466.83-17.73 464.2-20.9 460.45-20.9 456.7-20.9 454.73-18.38 452.75-15.85 452.75-13L452.75-13ZM489.85-38.6L489.85-38.6Q491.75-38.6 494.15-37.4L494.15-37.4 493.75-32.9 492.35-33Q492.35-34 491.35-35.3 490.35-36.6 488.75-36.6L488.75-36.6Q486.05-36.6 484.7-33.95 483.35-31.3 483.35-25.4L483.35-25.4Q483.35-23.4 485.35-23.4L485.35-23.4 490.25-23.4 490.25-21.3 483.45-21.3 483.45-3.7Q483.45-2.9 483.52-2.53 483.6-2.15 484.1-1.78 484.6-1.4 485.65-1.4L485.65-1.4 487.25-1.4 487.25 0 476.45 0 476.45-1.4 477.05-1.4Q478.15-1.4 478.67-1.78 479.2-2.15 479.27-2.53 479.35-2.9 479.35-3.7L479.35-3.7 479.35-19.5Q479.35-20.45 479-20.88 478.65-21.3 477.55-21.3L477.55-21.3 476.45-21.3 476.45-23.4 479.35-23.4 479.35-25.6Q479.35-38.6 489.85-38.6ZM529.24-1.6L529.24 0 522.04 0 522.04-5.8Q520.99-2.95 518.64-1.13 516.29 0.7 512.82 0.7 509.34 0.7 507.34-1.55 505.34-3.8 505.34-7.6L505.34-7.6Q505.34-14.65 509.02-19.33 512.69-24 518.04-24L518.04-24Q519.24-24 522.04-23L522.04-23 522.04-33Q522.04-33.95 521.39-34.38 520.74-34.8 519.14-34.8L519.14-34.8 519.14-36.2Q520.19-36.2 522.24-36.75 524.29-37.3 525.14-37.9L525.14-37.9 526.04-38.1 526.04-3.4Q526.04-2.45 526.42-2.02 526.79-1.6 528.24-1.6L528.24-1.6 529.24-1.6ZM522.04-9.9L522.04-9.9 522.04-18.8Q521.84-19.1 521.44-19.6 521.04-20.1 519.77-20.9 518.49-21.7 517.14-21.7L517.14-21.7Q513.49-21.7 511.07-18.25 508.64-14.8 508.64-9.5L508.64-9.5Q508.64-6.55 510.42-4.63 512.19-2.7 514.97-2.7 517.74-2.7 519.89-5.73 522.04-8.75 522.04-9.9ZM552.54-6.1L552.54-6.1 553.44-5.2Q550.24 0.7 541.94 0.7L541.94 0.7Q538.09 0.7 535.37-2.7 532.64-6.1 532.64-10.3L532.64-10.3Q532.64-15.95 536.32-19.98 539.99-24 545.24-24L545.24-24Q547.74-24 549.64-22.55L549.64-22.55Q553.04-19.9 553.04-15.7L553.04-15.7Q553.04-15.1 552.82-14.25 552.59-13.4 552.44-13.4L552.44-13.4 536.34-12.9Q536.34-9 538.79-5.7 541.24-2.4 544.74-2.4L544.74-2.4Q547.24-2.4 549.37-3.43 551.49-4.45 552.54-6.1ZM536.84-14.9L536.84-14.9 548.54-15.4Q548.64-15.4 548.64-16.3L548.64-16.3Q548.64-18.9 547.12-20 545.59-21.1 542.91-21.1 540.24-21.1 538.54-19.45 536.84-17.8 536.84-14.9ZM567.24-1.4L567.24 0 557.24 0 557.24-1.4 557.94-1.4Q559.04-1.4 559.54-1.88 560.04-2.35 560.04-3.5L560.04-3.5 560.04-33Q560.04-33.95 559.39-34.38 558.74-34.8 557.14-34.8L557.14-34.8 557.14-36.2Q558.14-36.2 560.21-36.75 562.29-37.3 563.24-37.9L563.24-37.9 564.14-38.1 564.14-3.6Q564.14-2.8 564.21-2.45 564.29-2.1 564.79-1.75 565.29-1.4 566.34-1.4L566.34-1.4 567.24-1.4ZM576.06-34.8Q577.18-34.8 577.81-34.05 578.43-33.3 578.43-32.13 578.43-30.95 577.48-30.18 576.53-29.4 575.41-29.4 574.28-29.4 573.66-30.15 573.03-30.9 573.03-32.02 573.03-33.15 573.98-33.98 574.93-34.8 576.06-34.8ZM581.53-1.4L581.53 0 571.43 0 571.43-1.4 572.23-1.4Q573.58-1.4 573.96-1.85 574.33-2.3 574.33-3.3L574.33-3.3 574.33-18.3Q574.33-19.25 573.71-19.68 573.08-20.1 571.43-20.1L571.43-20.1 571.43-21.5Q572.43-21.5 574.46-22.23 576.48-22.95 577.53-23.6L577.53-23.6 578.43-23.8 578.43-3.6Q578.43-2.8 578.51-2.45 578.58-2.1 579.08-1.75 579.58-1.4 580.63-1.4L580.63-1.4 581.53-1.4ZM592.28-2.6L592.28-2.6 597.28-2.8Q602.98-2.8 605.18-1.58 607.38-0.35 607.38 2.35 607.38 5.05 605.83 7.05 604.28 9.05 601.78 10.2L601.78 10.2Q596.83 12.4 591.18 12.4L591.18 12.4Q587.88 12.4 585.83 10.83 583.78 9.25 583.78 6.9L583.78 6.9Q583.78 1.4 588.48-0.2L588.48-0.2Q587.33-0.2 586.61-0.7 585.88-1.2 585.88-1.83 585.88-2.45 586.08-3.05 586.28-3.65 586.73-4.28 587.18-4.9 587.51-5.28 587.83-5.65 588.58-6.4L588.58-6.4 589.58-7.4Q586.88-9.8 586.88-13.93 586.88-18.05 589.98-21.08 593.08-24.1 596.78-24.1L596.78-24.1Q599.08-24.1 600.88-22.8L600.88-22.8Q602.98-25.2 607.88-25.2L607.88-25.2 607.38-20.9Q607.08-21.35 606.33-21.78 605.58-22.2 605.18-22.2L605.18-22.2Q603.83-22.2 602.38-21.3L602.38-21.3Q604.28-19.1 604.28-16L604.28-16Q604.28-12.1 601.28-9.05 598.28-6 594.48-6L594.48-6Q592.53-6 591.28-6.7L591.28-6.7Q589.18-4.2 589.18-3.6L589.18-3.6Q589.18-2.6 592.28-2.6ZM594.78-0.1L594.78-0.1 591.28-0.1Q589.73 0.85 589.23 1.35 588.73 1.85 588.38 2.3 588.03 2.75 587.78 3.2L587.78 3.2Q587.28 4.25 587.28 5.55 587.28 6.85 588.48 7.8L588.48 7.8Q590.53 9.3 594.21 9.3 597.88 9.3 601.03 8.05 604.18 6.8 604.18 4.6 604.18 2.4 601.63 1.15 599.08-0.1 594.78-0.1ZM590.08-15.68Q590.08-13 591.96-10.95 593.83-8.9 596.18-8.9 598.53-8.9 599.81-10.38 601.08-11.85 601.08-14.33 601.08-16.8 599.26-19 597.43-21.2 594.98-21.2 592.53-21.2 591.31-19.78 590.08-18.35 590.08-15.68ZM635.08-1.4L635.08 0 626.38 0 626.38-1.4 626.68-1.4Q627.18-1.4 627.53-1.93 627.88-2.45 627.88-3.3L627.88-3.3 627.88-16Q627.88-20.6 623.88-20.6L623.88-20.6Q621.03-20.6 618.85-17.6 616.68-14.6 616.68-13.1L616.68-13.1 616.68-3.6Q616.68-2.85 616.78-2.45L616.78-2.45Q617.03-1.4 618.88-1.4L618.88-1.4 619.88-1.4 619.88 0 609.78 0 609.78-1.4 610.48-1.4Q611.83-1.4 612.25-1.88 612.68-2.35 612.68-3.3L612.68-3.3 612.68-33Q612.68-33.95 612.03-34.38 611.38-34.8 609.78-34.8L609.78-34.8 609.78-36.2Q610.83-36.2 612.88-36.75 614.93-37.3 615.78-37.9L615.78-37.9 616.68-38.1 616.68-17.4Q619.28-24 626.08-24L626.08-24Q627.88-24 629.15-23.2 630.43-22.4 630.98-21.15L630.98-21.15Q631.98-19.05 631.98-16.9L631.98-16.9 631.98-3.4Q631.98-2.7 632.08-2.35L632.08-2.35Q632.28-1.4 634.08-1.4L634.08-1.4 635.08-1.4ZM652.98-3.1L652.98-3.1 653.38-1.9Q649.63 0.7 645.18 0.7L645.18 0.7Q643.58 0.7 642.43-0.45 641.28-1.6 641.28-3.5L641.28-3.5 641.28-21.2 638.38-21.2 638.38-23.3 639.48-23.3Q641.13-23.3 642.55-25.3 643.98-27.3 643.98-29L643.98-29 645.28-29 645.28-23.3 652.08-23.3 652.08-21.2 647.18-21.2Q645.28-21.2 645.28-19.4L645.28-19.4 645.28-5.1Q645.28-1.8 647.68-1.8L647.68-1.8Q650.38-1.8 652.98-3.1Z" opacity="1" transform="matrix(1,0,0,1,0,0)" fill="#f2e3db" class="undefined-text-1" data-fill-palette-color="quaternary" id="text-1"></path></svg></g></svg></g></svg></g></svg></g><g transform="matrix(1,0,0,1,239.3020328830022,23.25681742474751)"><svg viewBox="0 0 103.82400000000001 126.072" height="126.072" width="103.82400000000001"><g><svg xmlns="http://www.w3.org/2000/svg" xmlns:xlink="http://www.w3.org/1999/xlink" version="1.2" baseProfile="tiny" x="0" y="0" viewBox="10.8 2.4 78.4 95.2" xml:space="preserve" height="126.072" width="103.82400000000001" class="icon-icon-0" data-fill-palette-color="quaternary" id="icon-0"><g fill="#f2e3db" data-fill-palette-color="quaternary"><path d="M72.2 31.8C72.2 31.8 72.2 31.8 72.2 31.8c-0.4 4.1-1.5 12.1-3.9 19.3h1.6c-0.4-0.8-0.5-1.6-0.4-2.4 0.2-2.2 2-3.6 2.4-3.9l5.4-4.5c1-0.8 1.6-2 1.7-3.4 0.1-1.3-0.3-2.6-1.1-3.6C76.4 31.7 74.2 31.1 72.2 31.8z" fill="#f2e3db" data-fill-palette-color="quaternary"></path><path d="M50 2.4C28.4 2.4 10.8 20 10.8 41.6c0 10.9 4.3 21 12.2 28.4l26.2 27.2c0.2 0.2 0.6 0.4 0.9 0.4s0.7-0.1 0.9-0.4L77 70.1c7.9-7.5 12.2-17.6 12.2-28.5C89.2 20 71.6 2.4 50 2.4zM62.3 71H37.5c-0.7 0-1.2-0.6-1.2-1.2s0.6-1.2 1.2-1.2h24.8c0.7 0 1.2 0.6 1.2 1.2S63 71 62.3 71zM78.7 42.2l-5.4 4.5c0 0-0.1 0.1-0.1 0.1 0 0-1.2 0.9-1.4 2.1-0.1 0.8 0.4 1.7 1.3 2.6 0.4 0.4 0.5 0.9 0.3 1.4-0.2 0.5-0.6 0.8-1.2 0.8h-4.9c-2.7 6.9-6.8 12.5-13 12.5h-8.7c-15.6 0-18-35.5-18.1-37 0-0.3 0.1-0.7 0.3-0.9s0.6-0.4 0.9-0.4h42.5c0.3 0 0.7 0.1 0.9 0.4s0.4 0.6 0.3 0.9c0 0 0 0.1 0 0.1 2.7-0.5 5.5 0.4 7.2 2.5 1.3 1.5 1.9 3.5 1.7 5.4C81.2 39.1 80.2 40.9 78.7 42.2z" fill="#f2e3db" data-fill-palette-color="quaternary"></path></g></svg></g></svg></g></svg></g></svg></g></svg></g></svg></g><defs></defs></svg><rect width="320" height="360" fill="none" stroke="none" visibility="hidden"></rect></g></svg></g></svg>